<?xml version="1.0" encoding="iso-8859-1"?>
<!-- Uploaded to: SVG Repo, www.svgrepo.com, Generator: SVG Repo Mixer Tools -->
<!DOCTYPE svg PUBLIC "-//W3C//DTD SVG 1.1//EN" "http://www.w3.org/Graphics/SVG/1.1/DTD/svg11.dtd">
<svg fill="#000000" version="1.1" id="Capa_1" xmlns="http://www.w3.org/2000/svg" xmlns:xlink="http://www.w3.org/1999/xlink" 
	 width="800px" height="800px" viewBox="0 0 207.132 207.133"
	 xml:space="preserve">
<g>
	<g>
		<path d="M75.596,73.711V21.957c0-1.864-1.511-3.375-3.375-3.375h-1.181V3.375C71.041,1.511,69.529,0,67.666,0h-16.2
			c-1.864,0-3.375,1.511-3.375,3.375v15.207h-1.181c-1.864,0-3.375,1.511-3.375,3.375v51.754c-0.489,1.308-3.799,4.736-6.23,7.255
			c-6.329,6.555-13.502,13.985-13.502,21.379v101.413c0,1.864,1.511,3.375,3.375,3.375h64.775c1.864,0,3.375-1.511,3.375-3.375
			V102.345c0-7.394-7.174-14.824-13.503-21.379C79.396,78.447,76.085,75.019,75.596,73.711z M54.841,6.75h9.45v11.804h-9.45V6.75z
			 M88.579,200.382H30.553v-74.251h34.938v47.25H40.216c-1.864,0-3.375,1.512-3.375,3.375c0,1.864,1.511,3.375,3.375,3.375h28.65
			c1.864,0,3.375-1.511,3.375-3.375v-54c0-1.863-1.511-3.375-3.375-3.375H30.553v-17.037c0-4.667,6.709-11.616,11.608-16.691
			c5.338-5.529,8.124-8.563,8.124-11.754V25.332h18.561v48.567c0,3.191,2.786,6.225,8.124,11.754
			c4.899,5.074,11.608,12.024,11.608,16.691V200.382z"/>
		<path d="M169.829,80.965c-2.431-2.518-5.741-5.946-6.229-7.255V21.957c0-1.864-1.512-3.375-3.375-3.375h-1.181V3.375
			c0-1.864-1.511-3.375-3.375-3.375h-16.2c-1.863,0-3.375,1.511-3.375,3.375v15.207h-1.18c-1.864,0-3.375,1.511-3.375,3.375v51.754
			c-0.489,1.308-3.799,4.736-6.23,7.255c-6.328,6.555-13.503,13.985-13.503,21.379v101.413c0,1.864,1.511,3.375,3.375,3.375h64.775
			c1.864,0,3.375-1.511,3.375-3.375V102.345C183.332,94.951,176.158,87.521,169.829,80.965z M142.843,6.75h9.45v11.804h-9.45V6.75z
			 M176.582,200.382h-58.025v-74.251h34.938v47.25h-25.275c-1.864,0-3.375,1.512-3.375,3.375c0,1.864,1.511,3.375,3.375,3.375h28.65
			c1.864,0,3.375-1.511,3.375-3.375v-54c0-1.863-1.511-3.375-3.375-3.375h-38.313v-17.037c0-4.667,6.711-11.616,11.609-16.691
			c5.338-5.529,8.124-8.563,8.124-11.754V25.332h18.562v48.567c0,3.191,2.785,6.225,8.123,11.754
			c4.899,5.074,11.609,12.024,11.609,16.691v98.038H176.582z"/>
	</g>
</g>
</svg>