<?xml version="1.0" encoding="iso-8859-1"?>
<!-- Uploaded to: SVG Repo, www.svgrepo.com, Generator: SVG Repo Mixer Tools -->
<svg fill="#000000" height="800px" width="800px" version="1.1" id="Layer_1" xmlns="http://www.w3.org/2000/svg" xmlns:xlink="http://www.w3.org/1999/xlink" 
	 viewBox="0 0 512 512" xml:space="preserve">
<g>
	<g>
		<path d="M423.066,184.071c-34.993-42.871-76.898-75.757-108.188-97.008L299.996,0h-87.993l-14.882,87.063
			c-31.29,21.251-73.196,54.137-108.188,97.008c-45.6,55.87-68.723,115.042-68.723,175.871c0,42.315,25.849,81.474,72.786,110.261
			C136.947,497.155,194.835,512,256,512s119.053-14.845,163.003-41.799c46.937-28.787,72.786-67.944,72.786-110.259
			C491.789,299.113,468.667,239.941,423.066,184.071z M171.215,460.219c-20.997-5.966-40.308-14.184-57.087-24.475
			c-34.498-21.158-53.497-48.079-53.497-75.803c0-51.271,20.058-101.844,59.617-150.311c17.473-21.407,36.939-40.152,55.729-55.971
			c-15.034,49.319-32.579,124.403-32.579,206.282C143.398,397.109,153.255,432.48,171.215,460.219z M256,471.579
			c-39.126,0-72.18-51.123-72.18-111.638c0-125.769,45.519-238.048,49.955-248.678l0.245-0.162l12.081-70.68h19.797l12.082,70.68
			l0.244,0.16c4.464,10.697,49.956,122.947,49.956,248.678C328.18,420.456,295.126,471.579,256,471.579z M397.871,435.744
			c-16.779,10.291-36.089,18.509-57.088,24.475c17.96-27.74,27.818-63.111,27.818-100.278c0-81.88-17.544-156.963-32.579-206.282
			c18.789,15.818,38.257,34.564,55.729,55.971c39.56,48.468,59.618,99.038,59.618,150.311
			C451.368,387.665,432.369,414.587,397.871,435.744z"/>
	</g>
</g>
</svg>