<?xml version="1.0" encoding="iso-8859-1"?>
<!-- Uploaded to: SVG Repo, www.svgrepo.com, Generator: SVG Repo Mixer Tools -->
<svg fill="#000000" version="1.1" id="Layer_1" xmlns="http://www.w3.org/2000/svg" xmlns:xlink="http://www.w3.org/1999/xlink" 
	 viewBox="0 0 512 512" xml:space="preserve">
<g>
	<g>
		<rect x="64.053" y="193.476" width="30.414" height="24.931"/>
	</g>
</g>
<g>
	<g>
		<rect x="112.553" y="193.476" width="30.414" height="24.931"/>
	</g>
</g>
<g>
	<g>
		<rect x="161.044" y="193.476" width="30.414" height="24.931"/>
	</g>
</g>
<g>
	<g>
		<rect x="88.293" y="236.441" width="30.414" height="24.931"/>
	</g>
</g>
<g>
	<g>
		<rect x="136.804" y="236.441" width="30.414" height="24.931"/>
	</g>
</g>
<g>
	<g>
		<rect x="209.545" y="193.476" width="30.414" height="24.931"/>
	</g>
</g>
<g>
	<g>
		<rect x="258.045" y="193.476" width="30.414" height="24.931"/>
	</g>
</g>
<g>
	<g>
		<rect x="185.294" y="236.441" width="30.414" height="24.931"/>
	</g>
</g>
<g>
	<g>
		<rect x="233.805" y="236.441" width="30.414" height="24.931"/>
	</g>
</g>
<g>
	<g>
		<rect x="112.553" y="279.406" width="30.414" height="24.931"/>
	</g>
</g>
<g>
	<g>
		<rect x="161.044" y="279.406" width="30.414" height="24.931"/>
	</g>
</g>
<g>
	<g>
		<rect x="209.545" y="279.406" width="30.414" height="24.931"/>
	</g>
</g>
<g>
	<g>
		<path d="M474.428,144.939H352.512h-30.414H0v45.868c0,97.187,79.068,176.255,176.256,176.255
			c87.214,0,159.824-63.677,173.811-146.977h124.36c20.717,0,37.573-16.855,37.573-37.573
			C512,161.794,495.145,144.939,474.428,144.939z M322.098,190.806c0,1.123-0.017,2.243-0.043,3.36
			c-0.016,0.69-0.043,1.386-0.069,2.081c-0.014,0.38-0.026,0.76-0.044,1.141c-0.041,0.876-0.088,1.755-0.144,2.637
			c-0.011,0.179-0.022,0.359-0.034,0.537c-0.063,0.944-0.135,1.888-0.216,2.835c-6.404,74.542-69.117,133.25-145.292,133.25
			c-80.418,0-145.842-65.424-145.842-145.841v-15.454h291.684V190.806z M474.428,189.67H352.512v-14.317h121.915
			c3.947,0,7.159,3.211,7.159,7.159C481.586,186.458,478.375,189.67,474.428,189.67z"/>
	</g>
</g>
</svg>