<?xml version="1.0" encoding="iso-8859-1"?>
<!-- Uploaded to: SVG Repo, www.svgrepo.com, Generator: SVG Repo Mixer Tools -->
<svg fill="#000000" height="800px" width="800px" version="1.1" id="Layer_1" xmlns="http://www.w3.org/2000/svg" xmlns:xlink="http://www.w3.org/1999/xlink" 
	 viewBox="0 0 512 512" xml:space="preserve">
<g>
	<g>
		<path d="M435.199,48.808H368.04L50.623,0.447c-13.16-2.006-26.204,2.82-34.89,12.909S4.214,37.06,8.153,49.776
			c0.071,0.233,0.149,0.463,0.232,0.692l29.416,81.408L17.158,413.319v0.001c-1.862,25.4,7.013,50.668,24.351,69.324
			S83.398,512,108.866,512h222.523c35.675,0,64.699-29.023,64.699-64.699c0-0.185-0.003-0.371-0.009-0.554l-1.017-28.857h49.97
			c33.392,0,60.557-27.166,60.557-60.557V119.197C505.587,80.383,474.011,48.808,435.199,48.808z M331.389,480.51H108.866
			c-16.993,0-32.722-6.855-44.29-19.303c-11.568-12.448-17.254-28.636-16.011-45.585v0.001l20.888-284.79
			c0.162-2.207-0.144-4.422-0.895-6.503L38.158,40.2c-0.832-3.047,0.533-5.245,1.44-6.299c0.932-1.083,2.986-2.832,6.282-2.324
			l305.691,46.574l13.026,369.401C364.462,465.75,349.617,480.51,331.389,480.51z M474.097,357.333
			c0,16.028-13.04,29.067-29.067,29.067H393.95L383.155,80.297h52.043c21.449,0,38.899,17.45,38.899,38.899V357.333z"/>
	</g>
</g>
</svg>